<svg width="500" height="500" viewBox="0 0 500 500" fill="none" xmlns="http://www.w3.org/2000/svg">
<mask id="mask0_1637_5779" style="mask-type:luminance" maskUnits="userSpaceOnUse" x="84" y="85" width="332" height="330">
<path d="M241.28 114.75V212.5C241.28 220.292 238.185 227.765 232.675 233.275C227.165 238.785 219.692 241.88 211.9 241.88H114.16C106.369 241.877 98.8974 238.781 93.3882 233.272C87.8789 227.763 84.7827 220.291 84.78 212.5V114.75C84.7827 106.959 87.8789 99.4874 93.3882 93.9781C98.8974 88.4689 106.369 85.3726 114.16 85.37H211.9C219.692 85.37 227.165 88.4654 232.675 93.9752C238.185 99.485 241.28 106.958 241.28 114.75ZM211.9 258.12H114.16C106.369 258.123 98.8974 261.219 93.3882 266.728C87.8789 272.237 84.7827 279.709 84.78 287.5V385.25C84.7827 393.041 87.8789 400.513 93.3882 406.022C98.8974 411.531 106.369 414.627 114.16 414.63H211.9C219.692 414.63 227.165 411.535 232.675 406.025C238.185 400.515 241.28 393.042 241.28 385.25V287.5C241.28 279.708 238.185 272.235 232.675 266.725C227.165 261.215 219.692 258.12 211.9 258.12ZM385.84 85.37H288.1C280.308 85.37 272.835 88.4654 267.325 93.9752C261.815 99.485 258.72 106.958 258.72 114.75V212.5C258.72 220.292 261.815 227.765 267.325 233.275C272.835 238.785 280.308 241.88 288.1 241.88H326.94C328.66 241.881 330.362 242.222 331.95 242.883C333.538 243.543 334.98 244.51 336.193 245.729C337.406 246.948 338.367 248.394 339.02 249.985C339.674 251.576 340.007 253.28 340 255V328.81C340 342.16 330.84 352.99 317.48 352.99H315.83C302.47 352.99 293.3 342.16 293.3 328.81V307.81C293.3 303.433 291.562 299.235 288.468 296.139C285.374 293.043 281.177 291.303 276.8 291.3H275.14C270.761 291.3 266.562 293.039 263.466 296.136C260.369 299.232 258.63 303.431 258.63 307.81V344.81C258.63 361.67 265.328 377.839 277.249 389.761C289.171 401.682 305.34 408.38 322.2 408.38C357.31 408.38 387.42 379.92 387.42 344.81V250.31C388.42 245.74 390.1 242.05 394.48 240.62L396.35 239.97C401.898 237.841 406.671 234.08 410.038 229.183C413.405 224.286 415.208 218.483 415.21 212.54V114.75C415.207 106.96 412.113 99.4906 406.605 93.9817C401.098 88.4727 393.63 85.3753 385.84 85.37Z" fill="white"/>
</mask>
<g mask="url(#mask0_1637_5779)">
<path d="M498.76 0H0V498.76H498.76V0Z" fill="url(#paint0_linear_1637_5779)"/>
</g>
<defs>
<linearGradient id="paint0_linear_1637_5779" x1="61.13" y1="61.13" x2="413.81" y2="413.81" gradientUnits="userSpaceOnUse">
<stop stop-color="#61B2EA"/>
<stop offset="1" stop-color="#3E7FE1"/>
</linearGradient>
</defs>
</svg>
